Coordinates
version=1
nRows=6
nColumns=63
inDegrees=yes

Units are S.I. units (second, meters, Newtons, ...)
If the header above contains a line with 'inDegrees', this indicates whether rotational values are in degrees (yes) or radians (no).

endheader
time	pelvis_tilt	pelvis_list	pelvis_rotation	pelvis_tx	pelvis_ty	pelvis_tz	hip_flexion_r	hip_adduction_r	hip_rotation_r	knee_angle_r	knee_angle_r_beta	ankle_angle_r	subtalar_angle_r	mtp_angle_r	hip_flexion_l	hip_adduction_l	hip_rotation_l	knee_angle_l	knee_angle_l_beta	ankle_angle_l	subtalar_angle_l	mtp_angle_l	L5_S1_Flex_Ext	L5_S1_Lat_Bending	L5_S1_axial_rotation	L4_L5_Flex_Ext	L4_L5_Lat_Bending	L4_L5_axial_rotation	L3_L4_Flex_Ext	L3_L4_Lat_Bending	L3_L4_axial_rotation	L2_L3_Flex_Ext	L2_L3_Lat_Bending	L2_L3_axial_rotation	L1_L2_Flex_Ext	L1_L2_Lat_Bending	L1_L2_axial_rotation	L1_T12_Flex_Ext	L1_T12_Lat_Bending	L1_T12_axial_rotation	Abs_r3	Abs_r2	Abs_r1	Abs_t1	Abs_t2	neck_flexion	neck_bending	neck_rotation	arm_flex_r	arm_add_r	arm_rot_r	elbow_flex_r	pro_sup_r	wrist_flex_r	wrist_dev_r	arm_flex_l	arm_add_l	arm_rot_l	elbow_flex_l	pro_sup_l	wrist_flex_l	wrist_dev_l
4.234043	-1.140013	-0.741058	107.516660	0.050215	0.500459	0.770924	0.814036	2.120923	-18.204785	15.258286	0.266307	36.927894	6.150912	0.000000	1.972216	-1.795596	2.265409	16.107273	0.281125	36.681964	2.619433	0.000000	-0.051723	0.333786	-0.012342	-0.096055	0.443936	-0.013113	-0.084976	0.811568	-0.013113	-0.059114	0.811568	-0.010799	-0.048030	0.680657	-0.010028	-0.029554	0.517035	-0.009256	-0.369451	3.775858	-0.068640	0.000000	0.000000	17.089174	10.267127	27.251157	-38.007049	-46.312547	34.445251	110.093822	89.697897	-11.786183	-25.315558	-10.112994	-55.295293	60.919620	109.980625	88.498513	-2.410040	-19.165160
4.255319	-1.124712	-0.886860	107.785095	0.049427	0.500513	0.771899	1.028334	2.003756	-18.665820	15.288337	0.266832	37.116045	6.553933	0.000000	2.173962	-1.709850	2.610074	16.037539	0.279908	36.697648	2.752816	0.000000	-0.043336	0.326931	0.022312	-0.080480	0.434818	0.023707	-0.071197	0.794899	0.023707	-0.049529	0.794899	0.019523	-0.040242	0.666677	0.018129	-0.024762	0.506415	0.016734	-0.309546	3.698304	0.124095	0.000000	0.000000	17.805469	9.941864	26.552597	-37.129882	-46.810601	35.547548	110.047051	89.717931	-11.851346	-25.521743	-11.552077	-55.064174	58.968867	110.199493	88.569014	-1.568518	-18.371063
4.276596	-1.118958	-1.050504	108.000184	0.048796	0.500667	0.772816	1.240752	1.882375	-19.068141	15.282043	0.266722	37.255470	6.941462	0.000000	2.382412	-1.616632	2.883859	15.959802	0.278551	36.690166	2.894798	0.000000	-0.033610	0.316559	0.050597	-0.062417	0.421023	0.053759	-0.055218	0.769681	0.053759	-0.038413	0.769681	0.044272	-0.031210	0.645527	0.041110	-0.019205	0.490349	0.037948	-0.240072	3.580976	0.281406	0.000000	0.000000	18.675669	9.541682	25.716063	-36.272167	-47.271981	36.477500	110.067242	89.745181	-11.620813	-25.470917	-13.090880	-54.842943	56.902598	110.469835	88.658192	-0.669033	-17.552488
4.297872	-1.126734	-1.235207	108.151449	0.048311	0.500920	0.773645	1.447560	1.756562	-19.363335	15.235200	0.265904	37.338197	7.274528	0.000000	2.598488	-1.506812	3.105870	15.876606	0.277099	36.655479	2.986799	0.000000	-0.021243	0.302489	0.076135	-0.039451	0.402310	0.080894	-0.034900	0.735471	0.080894	-0.024279	0.735471	0.066619	-0.019726	0.616835	0.061860	-0.012138	0.468555	0.057102	-0.151738	3.421811	0.423443	0.000000	0.000000	19.662123	9.085410	24.723395	-35.504682	-47.682462	37.129224	110.178254	89.765653	-10.941635	-25.055313	-14.716258	-54.624876	54.721992	110.800186	88.765662	0.342796	-16.707323
4.319149	-1.151140	-1.445655	108.258627	0.047937	0.501315	0.774397	1.649342	1.623604	-19.608422	15.140304	0.264248	37.337527	7.564508	0.000000	2.825070	-1.377185	3.301063	15.774373	0.275315	36.562944	3.003233	0.000000	-0.004822	0.285044	0.094429	-0.008956	0.379109	0.100330	-0.007923	0.693057	0.100330	-0.005512	0.693057	0.082625	-0.004478	0.581262	0.076723	-0.002756	0.441534	0.070821	-0.034446	3.224479	0.525184	0.000000	0.000000	20.747984	8.543768	23.560388	-34.817210	-48.048184	37.491094	110.366751	89.724747	-9.724448	-24.185557	-16.381710	-54.412496	52.469436	111.193552	88.871399	1.449777	-15.734924
4.340426	-1.205023	-1.669102	108.236828	0.047774	0.501856	0.775041	1.839809	1.480348	-19.677566	15.007364	0.261928	37.254972	7.770356	0.000000	3.031650	-1.220891	3.402724	15.640950	0.272986	36.408831	2.919383	0.000000	0.014595	0.262698	0.125669	0.027104	0.349388	0.133523	0.023978	0.638724	0.133523	0.016680	0.638724	0.109960	0.013553	0.535694	0.102106	0.008339	0.406919	0.094252	0.104249	2.971693	0.698932	0.000000	0.000000	21.885019	7.868425	22.076276	-34.194998	-48.398037	37.637594	110.616101	89.592167	-8.163725	-22.923292	-17.923872	-54.223968	50.304897	111.639308	88.978572	2.571362	-14.607347
